# xmcd
#
# Track frame offsets: 
#        150
#        12796
#        26775
#        41416
#        55780
#        69484
#        82966
#        96076
#        108983
#        122445
#        136658
#        150181
#        164080
#        177021
#        190301
#        203115
#        216039
#        229503
#        242306
#        255447
#        269453
#        283491
#        297636
#        311272
#        324980
#        336714
#
# Disc length: 4664 seconds
#
# Revision: 0
# Processed by: cddbd v1.5.2PL0 Copyright (c) Steve Scherf et al.
# Submitted via: ExactAudioCopy v1.0b3
#
DISCID=6812361a
DTITLE=Various Artist - The Johnson City Sessions Disc 3
DYEAR=1900
DGENRE=Country
TTITLE0=George Wade and Francum Braswell - Think A Little
TTITLE1=George Wade and Francum Braswell - When We Go A-Courtin'
TTITLE2=Jack Jackson - In Our Little Home Sweet Home
TTITLE3=Jack Jackson - I'm Just A Black Sheep
TTITLE4=Roane County Ramblers - Free A Little Bird - 1930 Model
TTITLE5=Roane County Ramblers - Johnson City Rag
TTITLE6=Roane County Ramblers - Callahan Rag
TTITLE7=Roane County Ramblers - Alabama Trot
TTITLE8=Wyatt and Brandon - Evalina
TTITLE9=Wyatt and Brandon - Lover's Farewell
TTITLE10=Roy Harvey and Leonard Copeland - Just Pickin'
TTITLE11=Roy Harvey and Leonard Copeland - Beckley Rag
TTITLE12=Roy Harvey and Leonard Copeland - Underneath The Sugar Moon
TTITLE13=Roy Harvey and Leonard Copeland - Lonesome Weary Blues
TTITLE14=The Spindale Quartet - Sweet Peace The Gift Of God's Love
TTITLE15=The Spindale Quartet - God Will Take Care Of You
TTITLE16=The Spindale Quartet - Face To Face
TTITLE17=The Spindale Quartet - Lift Him Up
TTITLE18=Earl Shirkey and Roy Harper - The Virginian Strike Of '23
TTITLE19=Earl Shirkey and Roy Harper - The Policeman's Little Child
TTITLE20=Earl Shirkey and Roy Harper - My Yodeling Sweetheart
TTITLE21=Earl Shirkey and Roy Harper - I'm Longing To Belong To Someone
TTITLE22=Earl Shirkey and Roy Harper - We Have Moonshine In The West Vir
TTITLE22=ginia Hills
TTITLE23=Earl Shirkey and Roy Harper - A Hobo's Pal
TTITLE24=Moatsville String Ticklers - The West Virginia Hills
TTITLE25=Moatsville String Ticklers - Moatsville Blues
EXTD=
EXTT0=
EXTT1=
EXTT2=
EXTT3=
EXTT4=
EXTT5=
EXTT6=
EXTT7=
EXTT8=
EXTT9=
EXTT10=
EXTT11=
EXTT12=
EXTT13=
EXTT14=
EXTT15=
EXTT16=
EXTT17=
EXTT18=
EXTT19=
EXTT20=
EXTT21=
EXTT22=
EXTT23=
EXTT24=
EXTT25=
PLAYORDER=
